# xmcd CD database file
#
# Track frame offsets:
#	150
#	19650
#	35025
#	53550
#	67200
#	83250
#	96975
#	115500
#	129375
#	145950
#	164175
#	188700
#	202425
#	215850
#
# Disc length: 3028 seconds
#
# Revision: 0
# Processed by: cddbd v1.5.2PL0 Copyright (c) Steve Scherf et al.
# Submitted via: CDex 1.51
#
DISCID=d40bd20e
DTITLE=Blue Moon Quartett - Eh là-bas!
DYEAR=1900
DGENRE=Jazz
TTITLE0=Panama
TTITLE1=Why don't You Go Down To New Orleans
TTITLE2=Girl From Ipanama
TTITLE3=Honey Dripper
TTITLE4=Blue Blood Blues
TTITLE5=Eh Là-Bas!
TTITLE6=Echoes Of Spring
TTITLE7=Cheek Of Cheek
TTITLE8=Gee Baby, Ain't I Good To You
TTITLE9=Clementine From New Orleans
TTITLE10=The Martinique
TTITLE11=Caledonia
TTITLE12=King Of The Mardi Gras
TTITLE13=Dream A Little Dream Of Me
EXTD=
EXTT0=
EXTT1=
EXTT2=
EXTT3=
EXTT4=
EXTT5=
EXTT6=
EXTT7=
EXTT8=
EXTT9=
EXTT10=
EXTT11=
EXTT12=
EXTT13=
PLAYORDER=
